<?xml version="1.0" standalone="no"?><!DOCTYPE svg PUBLIC "-//W3C//DTD SVG 1.1//EN" "http://www.w3.org/Graphics/SVG/1.1/DTD/svg11.dtd"><svg t="1728547085105" class="icon" viewBox="0 0 1024 1024" version="1.1" xmlns="http://www.w3.org/2000/svg" p-id="4661" xmlns:xlink="http://www.w3.org/1999/xlink" width="200" height="200"><path d="M972.0832 537.6h-255.488c-3.6864 183.808-46.08 342.0672-107.1616 424.9088a461.056 461.056 0 0 0 362.6496-424.9088z m0-51.2a461.056 461.056 0 0 0-362.6496-424.9088c61.1328 82.8416 103.4752 241.152 107.1104 424.9088h255.5392z m-920.1664 0h255.488c3.6864-183.808 46.08-342.0672 107.1616-424.9088A461.056 461.056 0 0 0 51.9168 486.4z m0 51.2a461.056 461.056 0 0 0 362.6496 424.9088c-61.1328-82.8416-103.4752-241.152-107.1104-424.9088H51.9168z m613.376 0H358.7072C363.8272 782.2336 442.4192 972.8 512 972.8c69.632 0 148.1728-190.5664 153.344-435.2z m0-51.2C660.224 241.7664 581.632 51.2 512 51.2 442.368 51.2 363.8272 241.7664 358.656 486.4h306.688zM512 1024C229.2224 1024 0 794.7776 0 512S229.2224 0 512 0s512 229.2224 512 512-229.2224 512-512 512z" fill="#ffffff" p-id="4662"></path></svg>